<svg width="42" height="42" viewBox="0 0 42 42" fill="none" xmlns="http://www.w3.org/2000/svg">
<path fill-rule="evenodd" clip-rule="evenodd" d="M0 21C0 9.40275 9.40275 0 21 0C32.5973 0 42 9.40275 42 21C42 32.5973 32.5973 42 21 42C9.40275 42 0 32.5973 0 21ZM21 11C15.486 11 11 15.486 11 21C11 26.5139 15.486 31 21 31C26.514 31 31 26.5139 31 21V19.0952H21V22.9048H26.8907C26.0855 25.3892 23.7492 27.1905 21 27.1905C17.5866 27.1905 14.8095 24.4134 14.8095 21C14.8095 17.5866 17.5866 14.8095 21 14.8095C22.3788 14.8095 23.683 15.2526 24.7718 16.0907L27.0956 13.072C25.3348 11.7165 23.227 11 21 11Z" fill="white"/>
</svg>
