<svg width="42" height="42" viewBox="0 0 42 42" fill="none" xmlns="http://www.w3.org/2000/svg">
<path fill-rule="evenodd" clip-rule="evenodd" d="M0 21C0 9.40275 9.40275 0 21 0C32.5973 0 42 9.40275 42 21C42 32.5973 32.5973 42 21 42C9.40275 42 0 32.5973 0 21ZM17.5 28V17.5H14V28H17.5ZM15.75 15.9408C14.6877 15.9408 13.825 15.0728 13.825 14C13.825 12.929 14.686 12.0592 15.75 12.0592C16.814 12.0592 17.675 12.929 17.675 14C17.675 15.0728 16.8123 15.9408 15.75 15.9408ZM26.2535 28H29.75V22.1217C29.75 16.3747 24.276 16.5847 22.75 19.4128V17.5H19.25V28H22.75V22.9932C22.75 19.9797 26.2535 19.7015 26.2535 22.9932V28Z" fill="white"/>
</svg>
