<svg width="42" height="42" viewBox="0 0 42 42" fill="none" xmlns="http://www.w3.org/2000/svg">
<path fill-rule="evenodd" clip-rule="evenodd" d="M0 21C0 9.40275 9.40275 0 21 0C32.5973 0 42 9.40275 42 21C42 32.5973 32.5973 42 21 42C9.40275 42 0 32.5973 0 21ZM17.3285 31.8307C26.663 31.8307 31.9357 23.9487 31.6155 16.8787C32.6007 16.17 33.4512 15.2845 34.1232 14.273C33.2237 14.6737 32.2542 14.9432 31.2375 15.0658C32.2752 14.4427 33.0715 13.4592 33.4478 12.285C32.4782 12.8607 31.4003 13.2807 30.2558 13.5047C29.3388 12.5282 28.0315 11.9175 26.5877 11.9175C23.3415 11.9175 20.9562 14.9467 21.6895 18.0897C17.5122 17.8797 13.8075 15.8795 11.3295 12.838C10.0135 15.0972 10.647 18.053 12.8853 19.5492C12.061 19.523 11.2875 19.2972 10.6085 18.921C10.5542 21.2502 12.2238 23.4272 14.6405 23.9137C13.9353 24.1062 13.1582 24.15 12.369 23.9995C13.0112 25.9963 14.868 27.4505 17.066 27.4907C14.9537 29.1445 12.292 29.8865 9.625 29.5715C11.8492 30.9977 14.49 31.8307 17.3285 31.8307Z" fill="white"/>
</svg>
